<svg width="230" height="230" viewBox="0 0 230 230" fill="none" xmlns="http://www.w3.org/2000/svg">
<path d="M230 115C230 178.513 178.513 230 115 230C51.4873 230 0 178.513 0 115C0 51.4873 51.4873 0 115 0C178.513 0 230 51.4873 230 115Z" fill="black"/>
<path d="M32.32 140.912L50.176 130.352C40.864 129.2 35.584 122.864 35.584 111.44V93.104H28V86.288H83.968V93.104H73.984V146H66.208V126.8L36.832 147.248L32.32 140.912ZM66.208 93.104H43.36V111.728C43.36 119.984 46.912 123.728 53.344 123.728C58.24 123.728 62.944 121.04 66.208 117.584V93.104Z" fill="white"/>
<path d="M135.456 93.104V146H127.68V129.968C124.128 132.656 118.944 134.48 112.608 134.48C100.416 134.48 92.2563 128.336 88.2243 114.416C104.352 112.112 108.768 107.12 108.768 100.016C108.768 94.832 106.176 91.568 101.664 91.568C98.1123 91.568 95.9043 93.584 95.9043 96.752C95.9043 99.728 98.3042 101.648 102.144 103.088L98.8802 108.464C91.3922 106.16 88.3203 101.84 88.3203 96.56C88.3203 89.84 93.0243 85.328 101.472 85.328C111.072 85.328 116.544 91.184 116.544 100.304C116.544 109.712 110.784 116.144 98.5923 119.408C101.76 125.36 105.984 127.664 112.128 127.664C118.368 127.664 123.84 124.88 127.68 120.56V93.104H120.48V86.288H145.344V93.104H135.456Z" fill="white"/>
<path d="M192.833 93.104V146H185.057V122H163.841V125.552C163.841 129.776 161.633 131.504 159.233 131.504C154.337 131.504 147.713 124.208 147.713 119.312C147.713 117.008 149.249 115.184 153.569 115.184H156.065V93.104H143.969V86.288H202.721V93.104H192.833ZM185.057 93.104H163.841V115.184H185.057V93.104Z" fill="white"/>
</svg>
